<svg width="46" height="46" viewBox="0 0 46 46" fill="none" xmlns="http://www.w3.org/2000/svg">
<path d="M23.0002 45.6406C16.7471 45.6406 10.4939 44.7062 4.3127 42.7656C4.0252 42.6937 3.80957 42.3344 3.80957 42.0468C4.09707 39.1 5.7502 31.7687 14.1596 28.6062C14.3752 28.5343 14.6627 28.5343 14.8064 28.75L23.0002 35.2906L31.1221 28.75C31.3377 28.6062 31.5533 28.5343 31.7689 28.6062C40.1783 31.7687 41.7596 39.0281 42.1189 42.0468C42.1189 42.4062 41.9752 42.6937 41.6158 42.7656C35.5064 44.7062 29.2533 45.6406 23.0002 45.6406ZM5.24707 41.6156C17.0346 45.1375 28.9658 45.1375 40.6814 41.6156C40.1783 38.2375 38.3814 32.7031 31.6252 30.0437L23.3596 36.7281C23.0721 36.9437 22.7846 36.9437 22.4971 36.7281L14.2314 30.0437C7.61894 32.7031 5.7502 38.2375 5.24707 41.6156ZM26.5939 9.05623C26.3783 9.05623 26.1627 8.98435 26.0908 8.76873C25.8752 8.48123 25.8752 8.04998 26.2346 7.83435C27.0971 7.18748 27.5283 6.2531 27.5283 5.31873C27.5283 3.3781 25.5158 1.72498 23.0721 1.72498C20.6283 1.72498 18.6158 3.30623 18.6158 5.31873C18.6158 6.2531 19.0471 7.18748 19.9096 7.83435C20.1971 8.04998 20.2689 8.48123 19.9814 8.76873C19.7658 9.05623 19.3346 9.1281 19.0471 8.8406C17.8971 7.90623 17.2502 6.61248 17.2502 5.24685C17.2502 2.5156 19.8377 0.287476 23.0721 0.287476C26.3064 0.287476 28.8939 2.5156 28.8939 5.24685C28.8939 6.61248 28.2471 7.90623 27.0971 8.8406C26.8814 8.98435 26.7377 9.05623 26.5939 9.05623Z" fill="black"/>
<path d="M22.9999 30.6906C20.9874 30.6906 18.903 29.6843 17.178 27.8156C14.3749 24.9406 12.7937 20.4843 13.0093 15.9562C13.2968 10.925 17.6812 7.0437 22.9999 7.0437C28.3187 7.0437 32.7749 10.925 32.9905 15.9562C33.1343 20.4843 31.6249 24.9406 28.8218 27.8156C27.0968 29.6125 25.0124 30.6906 22.9999 30.6906ZM22.9999 8.40933C18.3999 8.40933 14.5905 11.7156 14.3749 16.0281C14.2312 20.1968 15.6687 24.2218 18.1843 26.8812C19.6937 28.4625 21.4187 29.325 22.9999 29.325C24.5812 29.325 26.3062 28.4625 27.8155 26.8812C30.3312 24.2218 31.7687 20.1968 31.6249 16.0281C31.4093 11.7156 27.5999 8.40933 22.9999 8.40933Z" fill="black"/>
<path d="M25.7312 15.1656C22.0655 15.1656 19.9093 13.5844 18.9749 12.65C17.2499 14.4469 16.028 14.5188 14.5187 14.5906H14.0874C13.728 14.5906 13.3687 14.3031 13.3687 13.9438C13.3687 13.5844 13.6562 13.225 14.0155 13.225H14.4468C16.028 13.1531 16.8905 13.0813 18.4718 11.1406C18.6155 10.9969 18.8312 10.8531 19.0468 10.925C19.2624 10.925 19.478 11.0688 19.5499 11.2125C19.6937 11.4281 22.8562 15.8844 31.4093 12.65C31.7687 12.5063 32.128 12.7219 32.2718 13.0813C32.4155 13.4406 32.1999 13.8 31.8405 13.9438C29.5405 14.8063 27.4562 15.1656 25.7312 15.1656ZM23.1437 24.7969C22.9999 24.7969 22.8562 24.725 22.7124 24.6531C22.5687 24.5094 22.4968 24.2938 22.4968 24.15V21.4188C22.4968 21.2031 22.5687 20.9875 22.7124 20.9156C22.8562 20.7719 23.0718 20.7 23.2874 20.7719L25.7312 21.275C26.0187 21.3469 26.3062 21.6344 26.3062 21.9219V23.6469C26.3062 24.0063 26.0905 24.2938 25.7312 24.2938L23.2874 24.7969C23.2155 24.7969 23.1437 24.7969 23.1437 24.7969ZM23.7905 22.2094V23.2156L24.8687 23V22.3531L23.7905 22.2094Z" fill="black"/>
<path d="M26.2342 23.4312C25.8029 23.4312 25.5873 23.4312 25.5873 23.4312C25.2279 23.4312 24.9404 23.0718 24.9404 22.7125C24.9404 22.3531 25.2998 22.0656 25.6592 22.0656C25.6592 22.0656 28.6061 22.2812 31.3373 20.8437C31.6967 20.7 32.0561 20.7718 32.2717 21.1312C32.4154 21.4906 32.3436 21.85 31.9842 22.0656C29.6842 23.2875 27.3123 23.4312 26.2342 23.4312Z" fill="black"/>
</svg>
