<svg width="24" height="16" viewBox="0 0 24 16" fill="none" xmlns="http://www.w3.org/2000/svg">
<g clip-path="url(#clip0_1289_1246)">
<g clip-path="url(#clip1_1289_1246)">
<path d="M0.97998 1.94727H23.98V14.0525H0.97998V1.94727Z" fill="#B22234"/>
<path d="M0.97998 3.34424H23.98H0.97998ZM23.98 5.20659H0.97998H23.98ZM0.97998 7.06893H23.98H0.97998ZM23.98 8.93128H0.97998H23.98ZM0.97998 10.7936H23.98H0.97998ZM23.98 12.656H0.97998H23.98Z" fill="black"/>
<path d="M0.97998 3.34424H23.98M23.98 5.20659H0.97998M0.97998 7.06893H23.98M23.98 8.93128H0.97998M0.97998 10.7936H23.98M23.98 12.656H0.97998" stroke="white" stroke-width="0.931174"/>
<path d="M0.97998 1.94727H10.18V8.46548H0.97998V1.94727Z" fill="#3C3B6E"/>
<path d="M1.74682 2.22656L1.96575 2.90037L1.39258 2.48393H2.10106L1.52788 2.90037L1.74682 2.22656Z" fill="white"/>
<path d="M1.74682 3.53027L1.96575 4.20408L1.39258 3.78764H2.10106L1.52788 4.20408L1.74682 3.53027Z" fill="white"/>
<path d="M1.74682 4.83398L1.96575 5.50779L1.39258 5.09135H2.10106L1.52788 5.50779L1.74682 4.83398Z" fill="white"/>
<path d="M1.74682 6.1377L1.96575 6.8115L1.39258 6.39507H2.10106L1.52788 6.8115L1.74682 6.1377Z" fill="white"/>
<path d="M1.74682 7.44092L1.96575 8.11472L1.39258 7.69829H2.10106L1.52788 8.11472L1.74682 7.44092Z" fill="white"/>
<path d="M2.51342 2.87842L2.73235 3.55222L2.15918 3.13579H2.86766L2.29449 3.55222L2.51342 2.87842Z" fill="white"/>
<path d="M2.51342 4.18213L2.73235 4.85593L2.15918 4.4395H2.86766L2.29449 4.85593L2.51342 4.18213Z" fill="white"/>
<path d="M2.51342 5.48584L2.73235 6.15964L2.15918 5.74321H2.86766L2.29449 6.15964L2.51342 5.48584Z" fill="white"/>
<path d="M2.51342 6.78955L2.73235 7.46335L2.15918 7.04692H2.86766L2.29449 7.46335L2.51342 6.78955Z" fill="white"/>
<path d="M3.28002 2.22656L3.49895 2.90037L2.92578 2.48393H3.63426L3.06109 2.90037L3.28002 2.22656Z" fill="white"/>
<path d="M3.28002 3.53027L3.49895 4.20408L2.92578 3.78764H3.63426L3.06109 4.20408L3.28002 3.53027Z" fill="white"/>
<path d="M3.28002 4.83398L3.49895 5.50779L2.92578 5.09135H3.63426L3.06109 5.50779L3.28002 4.83398Z" fill="white"/>
<path d="M3.28002 6.1377L3.49895 6.8115L2.92578 6.39507H3.63426L3.06109 6.8115L3.28002 6.1377Z" fill="white"/>
<path d="M3.28002 7.44092L3.49895 8.11472L2.92578 7.69829H3.63426L3.06109 8.11472L3.28002 7.44092Z" fill="white"/>
<path d="M4.04662 2.87842L4.26555 3.55222L3.69238 3.13579H4.40086L3.82769 3.55222L4.04662 2.87842Z" fill="white"/>
<path d="M4.04662 4.18213L4.26555 4.85593L3.69238 4.4395H4.40086L3.82769 4.85593L4.04662 4.18213Z" fill="white"/>
<path d="M4.04662 5.48584L4.26555 6.15964L3.69238 5.74321H4.40086L3.82769 6.15964L4.04662 5.48584Z" fill="white"/>
<path d="M4.04662 6.78955L4.26555 7.46335L3.69238 7.04692H4.40086L3.82769 7.46335L4.04662 6.78955Z" fill="white"/>
<path d="M4.81371 2.22656L5.03264 2.90037L4.45947 2.48393H5.16795L4.59478 2.90037L4.81371 2.22656Z" fill="white"/>
<path d="M4.81371 3.53027L5.03264 4.20408L4.45947 3.78764H5.16795L4.59478 4.20408L4.81371 3.53027Z" fill="white"/>
<path d="M4.81371 4.83398L5.03264 5.50779L4.45947 5.09135H5.16795L4.59478 5.50779L4.81371 4.83398Z" fill="white"/>
<path d="M4.81371 6.1377L5.03264 6.8115L4.45947 6.39507H5.16795L4.59478 6.8115L4.81371 6.1377Z" fill="white"/>
<path d="M4.81371 7.44092L5.03264 8.11472L4.45947 7.69829H5.16795L4.59478 8.11472L4.81371 7.44092Z" fill="white"/>
<path d="M5.58031 2.87842L5.79924 3.55222L5.22607 3.13579H5.93455L5.36138 3.55222L5.58031 2.87842Z" fill="white"/>
<path d="M5.58031 4.18213L5.79924 4.85593L5.22607 4.4395H5.93455L5.36138 4.85593L5.58031 4.18213Z" fill="white"/>
<path d="M5.58031 5.48584L5.79924 6.15964L5.22607 5.74321H5.93455L5.36138 6.15964L5.58031 5.48584Z" fill="white"/>
<path d="M5.58031 6.78955L5.79924 7.46335L5.22607 7.04692H5.93455L5.36138 7.46335L5.58031 6.78955Z" fill="white"/>
<path d="M6.34691 2.22656L6.56584 2.90037L5.99268 2.48393H6.70115L6.12798 2.90037L6.34691 2.22656Z" fill="white"/>
<path d="M6.34691 3.53027L6.56584 4.20408L5.99268 3.78764H6.70115L6.12798 4.20408L6.34691 3.53027Z" fill="white"/>
<path d="M6.34691 4.83398L6.56584 5.50779L5.99268 5.09135H6.70115L6.12798 5.50779L6.34691 4.83398Z" fill="white"/>
<path d="M6.34691 6.1377L6.56584 6.8115L5.99268 6.39507H6.70115L6.12798 6.8115L6.34691 6.1377Z" fill="white"/>
<path d="M6.34691 7.44092L6.56584 8.11472L5.99268 7.69829H6.70115L6.12798 8.11472L6.34691 7.44092Z" fill="white"/>
<path d="M7.11351 2.87842L7.33245 3.55222L6.75928 3.13579H7.46776L6.89458 3.55222L7.11351 2.87842Z" fill="white"/>
<path d="M7.11351 4.18213L7.33245 4.85593L6.75928 4.4395H7.46776L6.89458 4.85593L7.11351 4.18213Z" fill="white"/>
<path d="M7.11351 5.48584L7.33245 6.15964L6.75928 5.74321H7.46776L6.89458 6.15964L7.11351 5.48584Z" fill="white"/>
<path d="M7.11351 6.78955L7.33245 7.46335L6.75928 7.04692H7.46776L6.89458 7.46335L7.11351 6.78955Z" fill="white"/>
<path d="M7.88012 2.22656L8.09905 2.90037L7.52588 2.48393H8.23436L7.66118 2.90037L7.88012 2.22656Z" fill="white"/>
<path d="M7.88012 3.53027L8.09905 4.20408L7.52588 3.78764H8.23436L7.66118 4.20408L7.88012 3.53027Z" fill="white"/>
<path d="M7.88012 4.83398L8.09905 5.50779L7.52588 5.09135H8.23436L7.66118 5.50779L7.88012 4.83398Z" fill="white"/>
<path d="M7.88012 6.1377L8.09905 6.8115L7.52588 6.39507H8.23436L7.66118 6.8115L7.88012 6.1377Z" fill="white"/>
<path d="M7.88012 7.44092L8.09905 8.11472L7.52588 7.69829H8.23436L7.66118 8.11472L7.88012 7.44092Z" fill="white"/>
<path d="M8.64672 2.87842L8.86565 3.55222L8.29248 3.13579H9.00096L8.42779 3.55222L8.64672 2.87842Z" fill="white"/>
<path d="M8.64672 4.18213L8.86565 4.85593L8.29248 4.4395H9.00096L8.42779 4.85593L8.64672 4.18213Z" fill="white"/>
<path d="M8.64672 5.48584L8.86565 6.15964L8.29248 5.74321H9.00096L8.42779 6.15964L8.64672 5.48584Z" fill="white"/>
<path d="M8.64672 6.78955L8.86565 7.46335L8.29248 7.04692H9.00096L8.42779 7.46335L8.64672 6.78955Z" fill="white"/>
<path d="M9.41332 2.22656L9.63225 2.90037L9.05908 2.48393H9.76756L9.19439 2.90037L9.41332 2.22656Z" fill="white"/>
<path d="M9.41332 3.53027L9.63225 4.20408L9.05908 3.78764H9.76756L9.19439 4.20408L9.41332 3.53027Z" fill="white"/>
<path d="M9.41332 4.83398L9.63225 5.50779L9.05908 5.09135H9.76756L9.19439 5.50779L9.41332 4.83398Z" fill="white"/>
<path d="M9.41332 6.1377L9.63225 6.8115L9.05908 6.39507H9.76756L9.19439 6.8115L9.41332 6.1377Z" fill="white"/>
<path d="M9.41332 7.44092L9.63225 8.11472L9.05908 7.69829H9.76756L9.19439 8.11472L9.41332 7.44092Z" fill="white"/>
</g>
</g>
<defs>
<clipPath id="clip0_1289_1246">
<rect width="23" height="16" fill="white" transform="translate(0.97998)"/>
</clipPath>
<clipPath id="clip1_1289_1246">
<rect width="23" height="12.1053" fill="white" transform="translate(0.97998 1.94727)"/>
</clipPath>
</defs>
</svg>
