<svg width="123" height="20" viewBox="0 0 123 20" fill="none" xmlns="http://www.w3.org/2000/svg">
<path d="M20.3525 7.5221C20.3525 7.22034 20.1243 7.03283 19.6673 6.95942L13.5276 6.06662L10.7756 0.501421C10.6209 0.167092 10.4209 0 10.1763 0C9.93178 0 9.73196 0.167092 9.57703 0.501421L6.82491 6.06662L0.684878 6.95942C0.228343 7.03282 0 7.22034 0 7.5221C0 7.69339 0.101936 7.88916 0.305808 8.10924L4.75796 12.439L3.70618 18.5546C3.68981 18.6689 3.68171 18.7505 3.68171 18.7993C3.68171 18.9706 3.72449 19.1152 3.81006 19.2336C3.89564 19.3519 4.02399 19.4109 4.19529 19.4109C4.34211 19.4109 4.50515 19.3623 4.68455 19.2643L10.1762 16.3775L15.6683 19.2643C15.8397 19.3622 16.0028 19.4109 16.1574 19.4109C16.3209 19.4109 16.445 19.3521 16.5306 19.2336C16.616 19.1153 16.6588 18.9706 16.6588 18.7993C16.6588 18.6933 16.6548 18.6118 16.6465 18.5546L15.5946 12.439L20.0344 8.10924C20.2467 7.89726 20.3525 7.7015 20.3525 7.5221Z" fill="#FDBC4B"/>
<path d="M46.0146 7.5221C46.0146 7.22034 45.7864 7.03283 45.3294 6.95942L39.1897 6.06662L36.4377 0.501421C36.283 0.167092 36.083 0 35.8384 0C35.5939 0 35.3941 0.167092 35.2391 0.501421L32.487 6.06662L26.347 6.95942C25.8905 7.03282 25.6621 7.22034 25.6621 7.5221C25.6621 7.69339 25.764 7.88916 25.9679 8.10924L30.4201 12.439L29.3683 18.5546C29.3519 18.6689 29.3438 18.7505 29.3438 18.7993C29.3438 18.9706 29.3866 19.1152 29.4722 19.2336C29.5577 19.3519 29.6861 19.4109 29.8574 19.4109C30.0042 19.4109 30.1673 19.3623 30.3467 19.2643L35.8383 16.3775L41.3304 19.2643C41.5018 19.3622 41.6649 19.4109 41.8195 19.4109C41.983 19.4109 42.1071 19.3521 42.1927 19.2336C42.2781 19.1153 42.3209 18.9706 42.3209 18.7993C42.3209 18.6933 42.3169 18.6118 42.3086 18.5546L41.2567 12.439L45.6965 8.10924C45.9088 7.89726 46.0146 7.7015 46.0146 7.5221Z" fill="#FDBC4B"/>
<path d="M71.6762 7.5221C71.6762 7.22034 71.4481 7.03283 70.9911 6.95942L64.8513 6.06662L62.0994 0.501421C61.9446 0.167092 61.7446 0 61.5001 0C61.2555 0 61.0557 0.167092 60.9008 0.501421L58.1486 6.06662L52.0086 6.95942C51.5521 7.03282 51.3237 7.22034 51.3237 7.5221C51.3237 7.69339 51.4257 7.88916 51.6295 8.10924L56.0817 12.439L55.0299 18.5546C55.0135 18.6689 55.0054 18.7505 55.0054 18.7993C55.0054 18.9706 55.0482 19.1152 55.1338 19.2336C55.2194 19.3519 55.3477 19.4109 55.519 19.4109C55.6658 19.4109 55.8289 19.3623 56.0083 19.2643L61.4999 16.3775L66.992 19.2643C67.1634 19.3622 67.3265 19.4109 67.4811 19.4109C67.6446 19.4109 67.7688 19.3521 67.8543 19.2336C67.9397 19.1153 67.9825 18.9706 67.9825 18.7993C67.9825 18.6933 67.9785 18.6118 67.9702 18.5546L66.9183 12.439L71.3581 8.10924C71.5704 7.89726 71.6762 7.7015 71.6762 7.5221Z" fill="#FDBC4B"/>
<path d="M97.3384 7.5221C97.3384 7.22034 97.1102 7.03283 96.6532 6.95942L90.5135 6.06662L87.7615 0.501421C87.6067 0.167092 87.4067 0 87.1622 0C86.9176 0 86.7178 0.167092 86.5629 0.501421L83.8107 6.06662L77.6707 6.95942C77.2142 7.03282 76.9858 7.22034 76.9858 7.5221C76.9858 7.69339 77.0878 7.88916 77.2916 8.10924L81.7438 12.439L80.692 18.5546C80.6757 18.6689 80.6675 18.7505 80.6675 18.7993C80.6675 18.9706 80.7103 19.1152 80.7959 19.2336C80.8815 19.3519 81.0098 19.4109 81.1811 19.4109C81.328 19.4109 81.491 19.3623 81.6704 19.2643L87.162 16.3775L92.6541 19.2643C92.8256 19.3622 92.9886 19.4109 93.1432 19.4109C93.3067 19.4109 93.4309 19.3521 93.5164 19.2336C93.6019 19.1153 93.6446 18.9706 93.6446 18.7993C93.6446 18.6933 93.6406 18.6118 93.6323 18.5546L92.5804 12.439L97.0202 8.10924C97.2325 7.89726 97.3384 7.7015 97.3384 7.5221Z" fill="#FDBC4B"/>
<path d="M123 7.5221C123 7.22034 122.772 7.03283 122.315 6.95942L116.175 6.06662L113.423 0.501421C113.268 0.167092 113.068 0 112.824 0C112.579 0 112.379 0.167092 112.224 0.501421L109.472 6.06662L103.332 6.95942C102.876 7.03282 102.647 7.22034 102.647 7.5221C102.647 7.69339 102.749 7.88916 102.953 8.10924L107.405 12.439L106.354 18.5546C106.337 18.6689 106.329 18.7505 106.329 18.7993C106.329 18.9706 106.372 19.1152 106.458 19.2336C106.543 19.3519 106.671 19.4109 106.843 19.4109C106.99 19.4109 107.153 19.3623 107.332 19.2643L112.824 16.3775L118.316 19.2643C118.487 19.3622 118.65 19.4109 118.805 19.4109C118.968 19.4109 119.092 19.3521 119.178 19.2336C119.263 19.1153 119.306 18.9706 119.306 18.7993C119.306 18.6933 119.302 18.6118 119.294 18.5546L118.242 12.439L122.682 8.10924C122.894 7.89726 123 7.7015 123 7.5221Z" fill="#FDBC4B"/>
</svg>
