<svg width="21" height="21" viewBox="0 0 21 21" fill="none" xmlns="http://www.w3.org/2000/svg">
<path d="M10.4071 1C5.17901 1 0.901524 5.27749 0.901524 10.5055C0.901524 12.4066 1.45601 14.2285 2.48578 15.7336L0.901524 19.4566C0.743104 19.7734 1.05995 20.0903 1.45601 20.0111L5.17901 18.4268C6.68406 19.4566 8.50596 20.0111 10.4071 20.0111C15.6351 20.0111 19.9126 15.7336 19.9126 10.5055C19.9126 5.27749 15.6351 1 10.4071 1Z" stroke="black" stroke-width="1.5" stroke-miterlimit="10" stroke-linecap="round" stroke-linejoin="round"/>
<path d="M10.4073 12.4073L10.3281 10.8231C11.5955 10.8231 12.7045 9.7933 12.7045 8.4467C12.7045 7.1001 11.6747 6.07031 10.3281 6.07031C8.98146 6.07031 7.95166 7.1001 7.95166 8.4467H8.03086C8.03086 7.1001 9.13986 6.07031 10.4073 6.07031C11.6747 6.07031 12.7837 7.1793 12.7837 8.4467C12.7837 9.7933 11.7539 10.8231 10.4073 10.8231V12.4073Z" stroke="black" stroke-width="1.5" stroke-miterlimit="10" stroke-linecap="round" stroke-linejoin="round"/>
</svg>
