<svg width="46" height="45" viewBox="0 0 46 45" fill="none" xmlns="http://www.w3.org/2000/svg">
<rect x="0.279785" width="45" height="45" rx="22.5" fill="#999999"/>
<g clip-path="url(#clip0_1289_1336)">
<path d="M22.7798 10.5156C24.6574 10.5156 25.8833 10.5202 26.4575 10.5293C27.0317 10.5384 27.6925 10.5612 28.4399 10.5977C29.1144 10.6341 29.6522 10.7025 30.0532 10.8027C30.4543 10.903 30.7824 10.9987 31.0376 11.0898C31.3657 11.2174 31.6528 11.3633 31.8989 11.5273C32.145 11.6914 32.3957 11.8919 32.6509 12.1289C32.8879 12.3659 33.0884 12.612 33.2524 12.8672C33.4165 13.1224 33.5623 13.4141 33.6899 13.7422C33.7811 13.9792 33.8768 14.2982 33.9771 14.6992C34.0773 15.1003 34.1457 15.6471 34.1821 16.3398C34.2004 17.069 34.2186 17.7253 34.2368 18.3086C34.255 18.8919 34.2642 20.1224 34.2642 22C34.2642 23.8594 34.255 25.0807 34.2368 25.6641C34.2186 26.2474 34.2004 26.9036 34.1821 27.6328C34.1457 28.3255 34.0773 28.8724 33.9771 29.2734C33.8768 29.6745 33.7811 29.9935 33.6899 30.2305C33.5623 30.5586 33.4165 30.8503 33.2524 31.1055C33.0884 31.3607 32.8879 31.6068 32.6509 31.8438C32.3957 32.099 32.145 32.3086 31.8989 32.4727C31.6528 32.6367 31.3657 32.7826 31.0376 32.9102C30.7824 33.0013 30.4543 33.097 30.0532 33.1973C29.6522 33.2975 29.1144 33.3568 28.4399 33.375C27.6925 33.4115 27.0317 33.4342 26.4575 33.4434C25.8833 33.4525 24.6574 33.457 22.7798 33.457C20.9204 33.457 19.6991 33.4525 19.1157 33.4434C18.5324 33.4342 17.867 33.4115 17.1196 33.375C16.4451 33.3568 15.9074 33.2975 15.5063 33.1973C15.1053 33.097 14.7772 33.0013 14.522 32.9102C14.2121 32.7826 13.9295 32.6367 13.6743 32.4727C13.4191 32.3086 13.173 32.099 12.936 31.8438C12.6808 31.6068 12.4712 31.3607 12.3071 31.1055C12.1431 30.8503 11.9972 30.5677 11.8696 30.2578C11.7785 30.0026 11.6828 29.6745 11.5825 29.2734C11.4823 28.8724 11.423 28.3346 11.4048 27.6602C11.3683 26.9128 11.3455 26.2474 11.3364 25.6641C11.3273 25.0807 11.3228 23.8594 11.3228 22C11.3228 20.1224 11.3273 18.8919 11.3364 18.3086C11.3455 17.7253 11.3683 17.069 11.4048 16.3398C11.423 15.6654 11.4823 15.1276 11.5825 14.7266C11.6828 14.3255 11.7785 13.9974 11.8696 13.7422C11.9972 13.4141 12.1431 13.127 12.3071 12.8809C12.4712 12.6348 12.6717 12.3841 12.9087 12.1289C13.1639 11.8919 13.4146 11.6914 13.6606 11.5273C13.9067 11.3633 14.1938 11.2174 14.522 11.0898C14.7772 10.9987 15.1053 10.903 15.5063 10.8027C15.9074 10.7025 16.4451 10.6341 17.1196 10.5977C17.867 10.5612 18.5278 10.5384 19.1021 10.5293C19.6763 10.5202 20.9022 10.5156 22.7798 10.5156ZM22.7798 8C20.884 8 19.6353 8.00456 19.0337 8.01367C18.4321 8.02279 17.7576 8.04557 17.0103 8.08203C16.2629 8.11849 15.6203 8.19141 15.0825 8.30078C14.5448 8.41016 14.0571 8.55599 13.6196 8.73828C13.1457 8.92057 12.7082 9.13932 12.3071 9.39453C11.9061 9.64974 11.5142 9.96875 11.1313 10.3516C10.7485 10.7344 10.4295 11.1263 10.1743 11.5273C9.91911 11.9284 9.70036 12.3659 9.51807 12.8398C9.33577 13.2773 9.18994 13.765 9.08057 14.3027C8.97119 14.8405 8.89827 15.4831 8.86182 16.2305C8.82536 16.9779 8.80257 17.6523 8.79346 18.2539C8.78434 18.8555 8.77979 20.1042 8.77979 22C8.77979 23.8958 8.78434 25.1445 8.79346 25.7461C8.80257 26.3477 8.82536 27.0221 8.86182 27.7695C8.89827 28.5169 8.97119 29.1595 9.08057 29.6973C9.18994 30.235 9.33577 30.7227 9.51807 31.1602C9.70036 31.6341 9.91911 32.0716 10.1743 32.4727C10.4295 32.8737 10.7485 33.2656 11.1313 33.6484C11.5142 34.0312 11.9061 34.3503 12.3071 34.6055C12.7082 34.8607 13.1457 35.0794 13.6196 35.2617C14.0571 35.4258 14.5448 35.5671 15.0825 35.6855C15.6203 35.804 16.2629 35.8815 17.0103 35.918C17.7576 35.9544 18.4321 35.9772 19.0337 35.9863C19.6353 35.9954 20.884 36 22.7798 36C24.6756 36 25.9243 35.9954 26.5259 35.9863C27.1274 35.9772 27.8019 35.9544 28.5493 35.918C29.2967 35.8815 29.9393 35.804 30.4771 35.6855C31.0148 35.5671 31.5024 35.4258 31.9399 35.2617C32.3957 35.0794 32.8241 34.8607 33.2251 34.6055C33.6261 34.3503 34.0272 34.0312 34.4282 33.6484C34.811 33.2656 35.13 32.8737 35.3853 32.4727C35.6405 32.0716 35.8592 31.6341 36.0415 31.1602C36.2056 30.7227 36.3468 30.235 36.4653 29.6973C36.5838 29.1595 36.6522 28.5169 36.6704 27.7695C36.7069 27.0221 36.7297 26.3477 36.7388 25.7461C36.7479 25.1445 36.7524 23.8958 36.7524 22C36.7524 20.1042 36.7479 18.8555 36.7388 18.2539C36.7297 17.6523 36.7069 16.9779 36.6704 16.2305C36.6522 15.4831 36.5838 14.8405 36.4653 14.3027C36.3468 13.765 36.2056 13.2773 36.0415 12.8398C35.8592 12.3841 35.6405 11.9512 35.3853 11.541C35.13 11.1309 34.811 10.7344 34.4282 10.3516C34.0454 9.96875 33.6535 9.64974 33.2524 9.39453C32.8514 9.13932 32.4139 8.92057 31.9399 8.73828C31.5024 8.57422 31.0148 8.43294 30.4771 8.31445C29.9393 8.19596 29.2967 8.11849 28.5493 8.08203C27.8019 8.04557 27.1274 8.02279 26.5259 8.01367C25.9243 8.00456 24.6756 8 22.7798 8ZM22.7798 14.8086C21.7954 14.8086 20.8657 15 19.9907 15.3828C19.1157 15.7474 18.3501 16.2578 17.6938 16.9141C17.0376 17.5703 16.5272 18.3359 16.1626 19.2109C15.7798 20.0859 15.5884 21.0156 15.5884 22C15.5884 22.9844 15.7798 23.9141 16.1626 24.7891C16.5272 25.6641 17.0376 26.4297 17.6938 27.0859C18.3501 27.7422 19.1157 28.2526 19.9907 28.6172C20.8657 29 21.7954 29.1914 22.7798 29.1914C23.7642 29.1914 24.6938 29 25.5688 28.6172C26.4438 28.2526 27.2095 27.7422 27.8657 27.0859C28.522 26.4297 29.0324 25.6641 29.397 24.7891C29.7798 23.9141 29.9712 22.9844 29.9712 22C29.9712 21.0156 29.7798 20.0859 29.397 19.2109C29.0324 18.3359 28.522 17.5703 27.8657 16.9141C27.2095 16.2578 26.4438 15.7474 25.5688 15.3828C24.6938 15 23.7642 14.8086 22.7798 14.8086ZM22.7798 26.6758C21.4855 26.6758 20.3826 26.2201 19.4712 25.3086C18.5597 24.3971 18.104 23.2943 18.104 22C18.104 20.7057 18.5597 19.6029 19.4712 18.6914C20.3826 17.7799 21.4855 17.3242 22.7798 17.3242C24.0741 17.3242 25.1769 17.7799 26.0884 18.6914C26.9998 19.6029 27.4556 20.7057 27.4556 22C27.4556 23.2943 26.9998 24.3971 26.0884 25.3086C25.1769 26.2201 24.0741 26.6758 22.7798 26.6758ZM31.9399 14.5352C31.9399 14.9909 31.7759 15.3828 31.4478 15.7109C31.1196 16.0391 30.7186 16.2031 30.2446 16.2031C29.7889 16.2031 29.397 16.0391 29.0688 15.7109C28.7407 15.3828 28.5767 14.9909 28.5767 14.5352C28.5767 14.0612 28.7407 13.6602 29.0688 13.332C29.397 13.0039 29.7889 12.8398 30.2446 12.8398C30.7186 12.8398 31.1196 13.0039 31.4478 13.332C31.7759 13.6602 31.9399 14.0612 31.9399 14.5352Z" fill="#212733"/>
</g>
<defs>
<clipPath id="clip0_1289_1336">
<rect width="28" height="28" fill="white" transform="matrix(1 0 0 -1 8.77979 36)"/>
</clipPath>
</defs>
</svg>
