<svg width="46" height="45" viewBox="0 0 46 45" fill="none" xmlns="http://www.w3.org/2000/svg">
<rect x="0.839844" width="45" height="45" rx="22.5" fill="#999999"/>
<g clip-path="url(#clip0_1289_1348)">
<path d="M34.7148 8H11.9648C11.2357 8 10.6159 8.25521 10.1055 8.76562C9.59505 9.27604 9.33984 9.89583 9.33984 10.625V33.375C9.33984 34.1042 9.59505 34.724 10.1055 35.2344C10.6159 35.7448 11.2357 36 11.9648 36H34.7148C35.444 36 36.0638 35.7448 36.5742 35.2344C37.0846 34.724 37.3398 34.1042 37.3398 33.375V10.625C37.3398 9.89583 37.0846 9.27604 36.5742 8.76562C36.0638 8.25521 35.444 8 34.7148 8ZM19.8398 30.75H16.3398V18.5H19.8398V30.75ZM18.0898 16.75C17.5977 16.75 17.1829 16.5814 16.8457 16.2441C16.5085 15.9069 16.3398 15.4922 16.3398 15C16.3398 14.5078 16.5085 14.0931 16.8457 13.7559C17.1829 13.4186 17.5977 13.25 18.0898 13.25C18.582 13.25 18.9967 13.4186 19.334 13.7559C19.6712 14.0931 19.8398 14.5078 19.8398 15C19.8398 15.4922 19.6712 15.9069 19.334 16.2441C18.9967 16.5814 18.582 16.75 18.0898 16.75ZM32.0898 30.75H28.5898V23.75C28.5898 23.2578 28.4212 22.8431 28.084 22.5059C27.7467 22.1686 27.332 22 26.8398 22C26.3477 22 25.9329 22.1686 25.5957 22.5059C25.2585 22.8431 25.0898 23.2578 25.0898 23.75V30.75H21.5898V18.5H25.0898V20.6602C25.4544 20.168 25.901 19.6849 26.4297 19.2109C26.9583 18.737 27.5326 18.5 28.1523 18.5C29.2461 18.5 30.1758 18.9284 30.9414 19.7852C31.707 20.6419 32.0898 21.6719 32.0898 22.875V30.75Z" fill="#212733"/>
</g>
<defs>
<clipPath id="clip0_1289_1348">
<rect width="28" height="28" fill="white" transform="matrix(1 0 0 -1 9.33984 36)"/>
</clipPath>
</defs>
</svg>
