<svg width="23" height="17" viewBox="0 0 23 17" fill="none" xmlns="http://www.w3.org/2000/svg">
<path fill-rule="evenodd" clip-rule="evenodd" d="M22.27 13.875C22.27 14.8694 21.8389 15.5634 21.2551 15.9837C20.7096 16.3764 20.0775 16.5 19.645 16.5H3.39502C2.40058 16.5 1.70667 16.0689 1.28637 15.4851C0.893606 14.9396 0.77002 14.3075 0.77002 13.875V1.75C0.77002 0.783502 1.55352 0 2.52002 0H8.51471C9.07076 0 9.59371 0.264253 9.92356 0.711902L10.32 1.25H20.52C21.4865 1.25 22.27 2.0335 22.27 3V13.875ZM2.27002 1.75C2.27002 1.61193 2.38195 1.5 2.52002 1.5H8.51471C8.59415 1.5 8.66886 1.53775 8.71598 1.6017L11.6165 5.5381C11.9463 5.98575 12.4693 6.25 13.0253 6.25H20.52C20.6585 6.25 20.77 6.36192 20.77 6.49952V13.875C20.77 14.3806 20.5761 14.6241 20.3786 14.7663C20.1429 14.9361 19.8375 15 19.645 15H3.39502C2.88946 15 2.64587 14.8061 2.50367 14.6086C2.33393 14.3729 2.27002 14.0675 2.27002 13.875V1.75ZM20.77 4.76772V3C20.77 2.86193 20.6581 2.75 20.52 2.75H11.4253L12.824 4.6483C12.8712 4.71225 12.9459 4.75 13.0253 4.75H20.52C20.6049 4.75 20.6883 4.75604 20.77 4.76772Z" fill="black"/>
</svg>
