<svg width="46" height="45" viewBox="0 0 46 45" fill="none" xmlns="http://www.w3.org/2000/svg">
<rect x="0.47998" width="45" height="45" rx="22.5" fill="#999999"/>
<g clip-path="url(#clip0_1289_1351)">
<path d="M12.6987 28.5352C11.6779 28.5352 10.8029 28.8997 10.0737 29.6289C9.34456 30.3581 8.97998 31.2331 8.97998 32.2539C8.97998 33.2747 9.34456 34.1497 10.0737 34.8789C10.8029 35.6081 11.6779 35.9727 12.6987 35.9727C13.7378 35.9727 14.6219 35.6081 15.3511 34.8789C16.0802 34.1497 16.4448 33.2747 16.4448 32.2539C16.4448 31.2331 16.0802 30.3581 15.3511 29.6289C14.6219 28.8997 13.7378 28.5352 12.6987 28.5352ZM8.97998 17.5156V22.875C9.85498 22.875 10.7118 22.957 11.5503 23.1211C12.3888 23.3034 13.2 23.554 13.9839 23.873C14.7677 24.1921 15.5243 24.5977 16.2534 25.0898C16.9644 25.5638 17.6297 26.1107 18.2495 26.7305C18.8693 27.3503 19.4162 28.0156 19.8901 28.7266C20.3641 29.4375 20.7606 30.1849 21.0796 30.9688C21.3986 31.7526 21.6493 32.5729 21.8315 33.4297C21.9956 34.2682 22.0776 35.125 22.0776 36H27.4644C27.4644 33.4479 26.9813 31.0508 26.0151 28.8086C25.049 26.5664 23.7274 24.6068 22.0503 22.9297C20.3732 21.2526 18.4136 19.931 16.1714 18.9648C13.9292 17.9987 11.5321 17.5156 8.97998 17.5156ZM8.97998 8V13.3594C12.0972 13.3594 15.0321 13.9609 17.7847 15.1641C20.519 16.349 22.9116 17.9622 24.9624 20.0039C27.0132 22.0456 28.631 24.4427 29.8159 27.1953C31.0008 29.9479 31.5933 32.8828 31.5933 36H36.98C36.98 32.1354 36.2417 28.5078 34.7651 25.1172C33.3068 21.7083 31.3107 18.737 28.7769 16.2031C26.243 13.6693 23.2716 11.6732 19.8628 10.2148C16.4722 8.73828 12.8446 8 8.97998 8Z" fill="#212733"/>
</g>
<defs>
<clipPath id="clip0_1289_1351">
<rect width="28" height="28" fill="white" transform="matrix(1 0 0 -1 8.97998 36)"/>
</clipPath>
</defs>
</svg>
