<svg width="46" height="45" viewBox="0 0 46 45" fill="none" xmlns="http://www.w3.org/2000/svg">
<rect x="0.919922" width="45" height="45" rx="22.5" fill="#999999"/>
<g clip-path="url(#clip0_1289_1339)">
<path d="M21.5605 9.85938C19.8835 9.85938 18.3066 10.1784 16.8301 10.8164C15.3717 11.4544 14.0911 12.3249 12.9883 13.4277C11.8854 14.5306 11.015 15.8112 10.377 17.2695C9.73893 18.7461 9.41992 20.3229 9.41992 22C9.41992 23.276 9.61133 24.5065 9.99414 25.6914C10.377 26.8581 10.9102 27.9336 11.5938 28.918C12.2773 29.9023 13.0931 30.7682 14.041 31.5156C14.9889 32.263 16.0189 32.8555 17.1309 33.293C17.0944 32.819 17.0625 32.2493 17.0352 31.584C17.0078 30.9186 17.0579 30.3307 17.1855 29.8203C17.2402 29.5833 17.3405 29.1367 17.4863 28.4805C17.6504 27.8242 17.8145 27.1497 17.9785 26.457C18.1426 25.7643 18.2884 25.1445 18.416 24.5977C18.5436 24.0508 18.6074 23.7773 18.6074 23.7773C18.6074 23.7773 18.5482 23.6133 18.4297 23.2852C18.3112 22.957 18.252 22.5286 18.252 22C18.252 21.1432 18.4661 20.4368 18.8945 19.8809C19.3229 19.3249 19.8379 19.0469 20.4395 19.0469C20.9499 19.0469 21.3327 19.2155 21.5879 19.5527C21.8431 19.89 21.9707 20.2865 21.9707 20.7422C21.9707 21.2708 21.8477 21.8952 21.6016 22.6152C21.3555 23.3353 21.1413 24.0599 20.959 24.7891C20.8132 25.3906 20.9271 25.9056 21.3008 26.334C21.6745 26.7624 22.1621 26.9766 22.7637 26.9766C23.8392 26.9766 24.7415 26.4616 25.4707 25.4316C26.1999 24.4017 26.5645 23.0664 26.5645 21.4258C26.5645 19.9674 26.0951 18.778 25.1562 17.8574C24.2174 16.9368 23.0007 16.4766 21.5059 16.4766C19.7923 16.4766 18.4525 17.0189 17.4863 18.1035C16.5202 19.1882 16.0371 20.4049 16.0371 21.7539C16.0371 22.2826 16.1237 22.8021 16.2969 23.3125C16.4701 23.8229 16.6842 24.224 16.9395 24.5156C16.9941 24.5703 17.026 24.6296 17.0352 24.6934C17.0443 24.7572 17.0397 24.8164 17.0215 24.8711C16.9668 25.0534 16.903 25.3086 16.8301 25.6367C16.7572 25.9648 16.7116 26.1654 16.6934 26.2383C16.6569 26.3659 16.6068 26.4388 16.543 26.457C16.4792 26.4753 16.3926 26.457 16.2832 26.4023C15.5176 26.056 14.916 25.4089 14.4785 24.4609C14.041 23.513 13.8223 22.6016 13.8223 21.7266C13.8223 20.7604 13.9954 19.8398 14.3418 18.9648C14.6882 18.0716 15.1986 17.2878 15.873 16.6133C16.5475 15.9388 17.377 15.3919 18.3613 14.9727C19.3639 14.5716 20.5215 14.3711 21.834 14.3711C22.873 14.3711 23.8483 14.5534 24.7598 14.918C25.6712 15.2643 26.4642 15.752 27.1387 16.3809C27.8132 17.0098 28.3418 17.7526 28.7246 18.6094C29.1074 19.4479 29.2988 20.3685 29.2988 21.3711C29.2988 22.4284 29.1439 23.4128 28.834 24.3242C28.5241 25.2357 28.0911 26.0332 27.5352 26.7168C26.9792 27.4004 26.3092 27.9427 25.5254 28.3438C24.7598 28.7266 23.9212 28.918 23.0098 28.918C22.39 28.918 21.8203 28.7812 21.3008 28.5078C20.7812 28.2344 20.4212 27.9062 20.2207 27.5234C20.2207 27.5234 20.1159 27.9336 19.9062 28.7539C19.6966 29.5742 19.5553 30.1302 19.4824 30.4219C19.3366 30.9505 19.1087 31.5111 18.7988 32.1035C18.4889 32.696 18.2155 33.1927 17.9785 33.5938C18.5436 33.776 19.127 33.9128 19.7285 34.0039C20.3301 34.0951 20.9408 34.1406 21.5605 34.1406C23.2376 34.1406 24.8145 33.8216 26.291 33.1836C27.7493 32.5456 29.0299 31.6797 30.1328 30.5859C31.2357 29.4922 32.1061 28.207 32.7441 26.7305C33.3822 25.2539 33.7012 23.6771 33.7012 22C33.7012 20.3229 33.3822 18.7461 32.7441 17.2695C32.1061 15.8112 31.2357 14.5306 30.1328 13.4277C29.0299 12.3249 27.7493 11.4544 26.291 10.8164C24.8145 10.1784 23.2376 9.85938 21.5605 9.85938Z" fill="#212733"/>
</g>
<defs>
<clipPath id="clip0_1289_1339">
<rect width="28" height="28" fill="white" transform="matrix(1 0 0 -1 9.41992 36)"/>
</clipPath>
</defs>
</svg>
