<svg width="48" height="51" viewBox="0 0 48 51" fill="none" xmlns="http://www.w3.org/2000/svg">
<path d="M31.3928 15.0794C31.3338 14.9025 31.221 14.7485 31.0701 14.6389C30.9192 14.5293 30.7378 14.4696 30.5513 14.4683H26.1494L24.7942 10.2877C24.736 10.1105 24.6233 9.95624 24.4722 9.84686C24.3211 9.73748 24.1393 9.67859 23.9528 9.67859C23.7663 9.67859 23.5845 9.73748 23.4334 9.84686C23.2823 9.95624 23.1696 10.1105 23.1114 10.2877L21.7563 14.4683H17.3543C17.1678 14.4696 16.9864 14.5293 16.8355 14.6389C16.6846 14.7485 16.5718 14.9025 16.5129 15.0794C16.454 15.2581 16.4541 15.4509 16.5131 15.6295C16.5721 15.8081 16.6869 15.963 16.8406 16.0714L20.3923 18.6577L19.0371 22.8382C18.9786 23.0161 18.978 23.2079 19.0352 23.3861C19.0925 23.5643 19.2048 23.7198 19.356 23.8302C19.5088 23.9383 19.6914 23.9963 19.8785 23.9963C20.0657 23.9963 20.2483 23.9383 20.4011 23.8302L23.9528 21.244L27.5045 23.8302C27.6586 23.9359 27.8402 23.9944 28.0271 23.9985C28.2144 23.9971 28.3967 23.9383 28.5496 23.8302C28.7008 23.7198 28.8131 23.5643 28.8704 23.3861C28.9277 23.2079 28.927 23.0161 28.8685 22.8382L27.5134 18.6577L31.0651 16.0714C31.2188 15.963 31.3336 15.8081 31.3926 15.6295C31.4516 15.4509 31.4516 15.2581 31.3928 15.0794ZM25.9545 17.6037C25.8024 17.7135 25.6889 17.8685 25.63 18.0466C25.5712 18.2247 25.57 18.4169 25.6268 18.5957L26.3442 20.7922L24.4754 19.4283C24.3231 19.3188 24.1403 19.26 23.9528 19.26C23.7653 19.26 23.5825 19.3188 23.4302 19.4283L21.5614 20.7922L22.2788 18.5957C22.3356 18.4169 22.3344 18.2247 22.2756 18.0466C22.2168 17.8685 22.1032 17.7135 21.9511 17.6037L20.0823 16.2397H22.394C22.581 16.2408 22.7636 16.1821 22.9149 16.0722C23.0663 15.9622 23.1786 15.8068 23.2354 15.6286L23.9528 13.432L24.6702 15.6286C24.7271 15.8068 24.8393 15.9622 24.9907 16.0722C25.1421 16.1821 25.3246 16.2408 25.5117 16.2397H27.8234L25.9545 17.6037Z" fill="black"/>
<path d="M47.7607 43.5638L44.4305 38.4001C42.0479 34.7244 39.6683 31.0428 37.2917 27.3553C37.4777 27.2844 37.6902 27.2047 37.9028 27.1339C38.3828 27.0377 38.839 26.8473 39.2449 26.5737C39.6509 26.3 39.9985 25.9485 40.2676 25.5396C40.4181 25.0772 40.4761 24.5897 40.4381 24.1049C40.4001 23.6201 40.2669 23.1475 40.0462 22.7142C39.838 22.2609 39.7264 21.7692 39.7185 21.2705C39.9379 20.8442 40.2424 20.4674 40.6131 20.1633C41.0073 19.8648 41.3387 19.4912 41.588 19.064C41.8373 18.6369 41.9996 18.1646 42.0656 17.6745C42.0006 17.1853 41.8386 16.714 41.5892 16.2882C41.3398 15.8623 41.0079 15.4905 40.6131 15.1945C40.2437 14.8856 39.9396 14.5063 39.7185 14.0785C39.7264 13.5798 39.838 13.0881 40.0462 12.6348C40.2668 12.203 40.3998 11.732 40.4378 11.2486C40.4758 10.7653 40.418 10.2792 40.2676 9.81825C39.9977 9.41001 39.6499 9.05905 39.2441 8.78548C38.8383 8.5119 38.3825 8.32109 37.9028 8.22398C37.4258 8.10331 36.9773 7.8896 36.5831 7.59512C36.3871 7.1444 36.2789 6.66042 36.2642 6.16913C36.2776 5.681 36.1945 5.19504 36.0197 4.73908C35.8449 4.28313 35.5819 3.86614 35.2457 3.512C34.3991 3.01363 33.3898 2.87035 32.438 3.11343C31.9559 3.21294 31.4586 3.21294 30.9766 3.11343C30.6056 2.80265 30.3013 2.42003 30.082 1.98858C29.8806 1.5366 29.5913 1.1292 29.2309 0.790106C28.8705 0.451014 28.4463 0.187005 27.9829 0.0134503C27.503 -0.0278046 27.0197 0.0260673 26.5607 0.171977C26.1017 0.317887 25.676 0.552964 25.308 0.863731C24.9057 1.17035 24.4443 1.39048 23.9529 1.5103C23.4614 1.39048 23.0001 1.17035 22.5977 0.863731C22.2311 0.553648 21.8069 0.318933 21.3495 0.173029C20.892 0.0271247 20.4102 -0.0271034 19.9318 0.0134503C19.4664 0.185478 19.0402 0.448842 18.6782 0.788043C18.3162 1.12724 18.0257 1.53543 17.8238 1.98858C17.6042 2.41735 17.3034 2.79937 16.9381 3.11343C16.453 3.21279 15.9528 3.21279 15.4678 3.11343C14.5189 2.87024 13.5122 3.01359 12.6689 3.512C12.329 3.86571 12.063 4.28369 11.8866 4.74146C11.7102 5.19924 11.6269 5.68761 11.6415 6.17799C11.6325 6.66807 11.5208 7.15082 11.3138 7.59512C10.9277 7.89009 10.4842 8.10126 10.0118 8.21512C9.04078 8.41147 8.18719 8.98478 7.63812 9.80939C7.48762 10.2718 7.42971 10.7593 7.4677 11.2441C7.5057 11.7289 7.63885 12.2015 7.85955 12.6348C8.06773 13.0881 8.17933 13.5798 8.18726 14.0785C7.96618 14.5063 7.66207 14.8856 7.29269 15.1945C6.89784 15.4905 6.566 15.8623 6.31659 16.2882C6.06717 16.714 5.90519 17.1853 5.84013 17.6745C5.90617 18.1646 6.06851 18.6369 6.3178 19.064C6.5671 19.4912 6.89842 19.8648 7.29269 20.1633C7.66342 20.4674 7.96787 20.8442 8.18726 21.2705C8.17933 21.7692 8.06773 22.2609 7.85955 22.7142C7.63901 23.146 7.50593 23.617 7.46793 24.1004C7.42993 24.5837 7.48777 25.0698 7.63812 25.5307C7.9059 25.9409 8.25311 26.2933 8.65927 26.5671C9.06543 26.8409 9.52231 27.0306 10.003 27.125C10.2067 27.2047 10.4192 27.2756 10.6141 27.3553C8.23154 31.0398 5.85194 34.7214 3.47528 38.4001L0.145018 43.5638C0.0489565 43.7085 -0.00154284 43.8786 3.59178e-05 44.0523C0.00161467 44.2259 0.0551992 44.3951 0.153875 44.5381C0.250103 44.6809 0.386203 44.7924 0.545252 44.8585C0.704301 44.9246 0.879284 44.9426 1.04844 44.9101L7.09784 43.7852L8.56811 49.7726C8.61081 49.9399 8.70146 50.091 8.82892 50.2075C8.95638 50.3239 9.11509 50.4006 9.28554 50.428C9.33213 50.4383 9.37957 50.4442 9.42725 50.4457C9.57568 50.4467 9.72191 50.4098 9.8521 50.3385C9.98229 50.2672 10.0921 50.1639 10.1712 50.0383L19.7192 35.2558C19.79 35.2735 19.852 35.3178 19.9229 35.3355C20.068 35.3701 20.2166 35.388 20.3658 35.3887C21.1788 35.2991 21.9513 34.9864 22.5977 34.4853C23.0001 34.1786 23.4614 33.9585 23.9529 33.8387C24.4443 33.9585 24.9057 34.1786 25.308 34.4853C25.6762 34.7985 26.1033 35.035 26.5641 35.181C27.025 35.327 27.5103 35.3796 27.9917 35.3355C28.0626 35.3178 28.1246 35.2735 28.1866 35.2558L37.7345 50.0383C37.8136 50.1639 37.9235 50.2672 38.0537 50.3385C38.1839 50.4098 38.3301 50.4467 38.4785 50.4457C38.5262 50.4442 38.5736 50.4383 38.6202 50.428C38.7907 50.4006 38.9494 50.3239 39.0768 50.2075C39.2043 50.091 39.295 49.9399 39.3377 49.7726L40.8079 43.7852L46.8573 44.9101C47.0265 44.9416 47.2011 44.9233 47.36 44.8572C47.5188 44.7911 47.655 44.6802 47.7519 44.5381C47.8506 44.3951 47.9041 44.2259 47.9057 44.0523C47.9073 43.8786 47.8568 43.7085 47.7607 43.5638ZM9.79925 47.3458L8.62125 42.5541C8.56833 42.3343 8.43336 42.143 8.24399 42.0195C8.05461 41.896 7.82518 41.8496 7.60269 41.8898L2.749 42.7932L4.96328 39.3655C7.17755 35.929 9.39773 32.4924 11.6238 29.0559C11.6334 29.0966 11.6394 29.1381 11.6415 29.1799C11.6282 29.668 11.7113 30.1539 11.8861 30.6099C12.0609 31.0659 12.3239 31.4828 12.6601 31.837C13.5068 32.3349 14.5159 32.4781 15.4678 32.2356C15.9498 32.136 16.4471 32.136 16.9292 32.2356C17.3023 32.5443 17.607 32.9274 17.8238 33.3604C17.9921 33.6173 18.1603 33.8741 18.3375 34.1221L9.79925 47.3458ZM27.85 33.4313C27.7784 33.5125 27.6868 33.5736 27.5843 33.6084C27.3363 33.6615 26.6809 33.263 26.2557 32.9884C25.5898 32.4713 24.7917 32.1521 23.9529 32.0673C23.114 32.1521 22.316 32.4713 21.65 32.9884C21.2249 33.263 20.5695 33.6704 20.3303 33.6173C20.2217 33.5757 20.1246 33.5089 20.0469 33.4224C19.7726 33.1154 19.5321 32.7799 19.3295 32.4216C18.963 31.6905 18.4022 31.0746 17.7086 30.6413C17.306 30.458 16.8665 30.3701 16.4244 30.3844C16.0392 30.3919 15.6547 30.4215 15.2729 30.473C14.7238 30.535 13.9798 30.6236 13.7672 30.4553C13.5547 30.287 13.4661 29.5341 13.4041 28.985C13.3933 28.1556 13.1509 27.3457 12.7044 26.6467C12.6339 26.5583 12.5537 26.4781 12.4652 26.4076C12.4314 26.3789 12.3959 26.3523 12.3589 26.3279L12.3501 26.319H12.3412C11.8117 25.9318 11.2181 25.6409 10.5875 25.4599C10.065 25.2739 9.35639 25.0259 9.23239 24.7602C9.1084 24.5122 9.35639 23.8125 9.53354 23.2987C9.88833 22.5455 10.0205 21.7066 9.91439 20.8808C9.65429 20.105 9.17798 19.4198 8.54154 18.9056C8.15183 18.5159 7.61155 17.9756 7.61155 17.6745C7.61155 17.3734 8.15183 16.8331 8.54154 16.4434C9.17798 15.9292 9.65429 15.2439 9.91439 14.4682C10.0205 13.6424 9.88833 12.8035 9.53354 12.0502C9.35639 11.5365 9.1084 10.8368 9.23239 10.58C9.35639 10.3231 10.0738 10.0751 10.5964 9.88911C11.3948 9.70138 12.1231 9.28963 12.6955 8.70226C13.1487 8.00909 13.3945 7.20094 13.4041 6.37284C13.4661 5.8237 13.5458 5.07971 13.7672 4.90257C13.9887 4.72542 14.7238 4.81399 15.2729 4.87599C16.0846 5.0489 16.9285 4.99059 17.7086 4.70771C18.4043 4.27695 18.9657 3.66032 19.3295 2.92743C19.6218 2.44915 20.0292 1.80258 20.3215 1.74058C20.5695 1.67858 21.2249 2.09487 21.65 2.36058C22.316 2.87769 23.114 3.1969 23.9529 3.28172C24.7917 3.1969 25.5898 2.87769 26.2557 2.36058C26.6809 2.09487 27.3274 1.68744 27.5843 1.74058C27.8766 1.80258 28.284 2.44915 28.5763 2.92743C28.9401 3.66032 29.5015 4.27695 30.1971 4.70771C30.9773 4.99059 31.8212 5.0489 32.6328 4.87599C33.182 4.81399 33.926 4.72542 34.1385 4.89371C34.3511 5.06199 34.4397 5.81485 34.5017 6.36399C34.5125 7.19338 34.7548 8.00326 35.2014 8.70226C35.7823 9.2896 36.5153 9.70362 37.3182 9.89797C37.8408 10.0751 38.5494 10.3231 38.6734 10.5888C38.7974 10.8368 38.5494 11.5365 38.3722 12.0502C38.0174 12.8035 37.8853 13.6424 37.9914 14.4682C38.2515 15.2439 38.7278 15.9292 39.3642 16.4434C39.7539 16.8331 40.2942 17.3734 40.2942 17.6745C40.2942 17.9756 39.7539 18.5159 39.3642 18.9056C38.7278 19.4198 38.2515 20.105 37.9914 20.8808C37.8853 21.7066 38.0174 22.5455 38.3722 23.2987C38.5494 23.8125 38.7974 24.5122 38.6734 24.769C38.5494 25.0259 37.8319 25.2827 37.3182 25.4599C36.655 25.6411 36.0326 25.9478 35.4848 26.3633C35.3866 26.4511 35.2949 26.5458 35.2102 26.6467C34.7571 27.3399 34.5113 28.148 34.5017 28.9761C34.4397 29.5253 34.36 30.2693 34.1385 30.4464C33.9171 30.6236 33.182 30.535 32.6328 30.473C31.8215 30.2957 30.9764 30.354 30.1971 30.6413C29.5036 31.0746 28.9428 31.6905 28.5763 32.4216C28.3716 32.7835 28.128 33.1221 27.85 33.4313ZM40.3031 41.8898C40.0806 41.8496 39.8512 41.896 39.6618 42.0195C39.4724 42.143 39.3374 42.3343 39.2845 42.5541L38.1065 47.3458L29.5683 34.1221C29.7454 33.8741 29.9137 33.6173 30.082 33.3604C30.299 32.93 30.6002 32.5475 30.9677 32.2356C31.4528 32.1362 31.9529 32.1362 32.438 32.2356C33.3869 32.4787 34.3935 32.3354 35.2368 31.837C35.576 31.4845 35.8415 31.068 36.0179 30.6118C36.1943 30.1556 36.2781 29.6688 36.2642 29.1799C36.2658 29.138 36.2717 29.0965 36.282 29.0559C38.5051 32.4924 40.7253 35.929 42.9425 39.3655L45.1568 42.7932L40.3031 41.8898Z" fill="black"/>
</svg>
