<svg width="18" height="18" viewBox="0 0 18 18" fill="none" xmlns="http://www.w3.org/2000/svg">
<path fill-rule="evenodd" clip-rule="evenodd" d="M12.2508 7.00077C12.2508 8.39315 11.6976 9.72851 10.7131 10.7131C9.72851 11.6976 8.39315 12.2508 7.00077 12.2508C5.60838 12.2508 4.27302 11.6976 3.28846 10.7131C2.30389 9.72851 1.75077 8.39315 1.75077 7.00077C1.75077 5.60838 2.30389 4.27302 3.28846 3.28846C4.27302 2.30389 5.60838 1.75077 7.00077 1.75077C8.39315 1.75077 9.72851 2.30389 10.7131 3.28846C11.6976 4.27302 12.2508 5.60838 12.2508 7.00077ZM11.2908 12.5308C9.884 13.6221 8.11422 14.1364 6.34164 13.969C4.56906 13.8015 2.9269 12.9649 1.7494 11.6294C0.571901 10.2939 -0.0524394 8.55986 0.00345327 6.78026C0.059346 5.00066 0.791271 3.30924 2.05026 2.05026C3.30924 0.791271 5.00066 0.059346 6.78026 0.00345327C8.55986 -0.0524394 10.2939 0.571901 11.6294 1.7494C12.9649 2.9269 13.8015 4.56906 13.969 6.34164C14.1364 8.11422 13.6221 9.884 12.5308 11.2908L17.6208 16.3908L16.3808 17.6208L11.2908 12.5308Z" fill="black"/>
</svg>
