<svg width="29" height="28" viewBox="0 0 29 28" fill="none" xmlns="http://www.w3.org/2000/svg">
<path d="M13.5896 15.2476C16.0052 15.2476 17.9635 13.2894 17.9635 10.8738C17.9635 8.4582 16.0052 6.49998 13.5896 6.49998C11.174 6.49998 9.21582 8.4582 9.21582 10.8738C9.21582 13.2894 11.174 15.2476 13.5896 15.2476Z" stroke="black" stroke-width="1.5"/>
<path d="M5.92578 22.5005C5.92578 21.5482 6.12402 20.6053 6.50917 19.7255C6.89432 18.8457 7.45885 18.0463 8.17052 17.3729C8.88219 16.6996 9.72707 16.1654 10.6569 15.801C11.5867 15.4366 12.5833 15.249 13.5898 15.249C14.5962 15.249 15.5928 15.4366 16.5227 15.801C17.4525 16.1654 18.2974 16.6996 19.0091 17.3729C19.7208 18.0463 20.2853 18.8457 20.6704 19.7255C21.0556 20.6053 21.2538 21.5482 21.2538 22.5005" stroke="black" stroke-width="1.5" stroke-linecap="round" stroke-linejoin="round"/>
</svg>
