<svg width="53" height="53" viewBox="0 0 53 53" fill="none" xmlns="http://www.w3.org/2000/svg">
<mask id="path-1-inside-1_1289_1490" fill="white">
<path fill-rule="evenodd" clip-rule="evenodd" d="M8.86756 32.0208C9.02668 34.5724 9.73814 37.059 10.9527 39.3086C12.1673 41.5582 13.8561 43.5172 15.9022 45.05C16.0943 45.1935 16.3273 45.2708 16.5658 45.2708L36.4375 45.2686C36.6771 45.2686 36.9101 45.1902 37.1011 45.0466C41.1147 42.029 43.8045 37.3418 44.1324 32.0208H48.5833C48.8762 32.0208 49.157 31.9045 49.3641 31.6974C49.5712 31.4903 49.6875 31.2095 49.6875 30.9166C49.6875 18.1193 39.2973 7.72913 26.5 7.72913C13.7027 7.72913 3.3125 18.1193 3.3125 30.9166C3.3125 31.2095 3.42883 31.4903 3.6359 31.6974C3.84297 31.9045 4.12382 32.0208 4.41667 32.0208H8.86756ZM27.6042 15.4969V17.6666C27.6042 17.9595 27.4878 18.2403 27.2808 18.4474C27.0737 18.6545 26.7928 18.7708 26.5 18.7708C26.2072 18.7708 25.9263 18.6545 25.7192 18.4474C25.5122 18.2403 25.3958 17.9595 25.3958 17.6666V15.4969C23.433 15.6347 21.5149 16.1482 19.7458 17.0096L20.8312 18.89C20.9753 19.1435 21.0133 19.4437 20.9369 19.7251C20.8605 20.0065 20.6759 20.2462 20.4234 20.392C20.1709 20.5378 19.871 20.5778 19.5891 20.5033C19.3072 20.4287 19.0663 20.2457 18.9188 19.9942L17.8345 18.1171C16.2075 19.2213 14.8047 20.6241 13.7005 22.2511L15.5776 23.3354C15.8291 23.4829 16.0121 23.7238 16.0866 24.0057C16.1612 24.2876 16.1212 24.5876 15.9754 24.8401C15.8296 25.0926 15.5898 25.2772 15.3085 25.3536C15.0271 25.43 14.7269 25.3919 14.4734 25.2478L12.593 24.1624C11.7316 25.9315 11.218 27.8496 11.0803 29.8125H13.25C13.5428 29.8125 13.8237 29.9288 14.0308 30.1359C14.2378 30.3429 14.3542 30.6238 14.3542 30.9166C14.3542 31.2095 14.2378 31.4903 14.0308 31.6974C13.8237 31.9045 13.5428 32.0208 13.25 32.0208H11.0803C11.218 33.9838 11.732 35.9019 12.5941 37.6708L14.4734 36.5854C14.7269 36.4413 15.0271 36.4033 15.3085 36.4797C15.5898 36.5561 15.8296 36.7407 15.9754 36.9932C16.1212 37.2457 16.1612 37.5456 16.0866 37.8275C16.0121 38.1094 15.8291 38.3504 15.5776 38.4978L13.7005 39.581C14.596 40.9007 15.689 42.0749 16.9412 43.0625L36.061 43.0603C37.3119 42.0732 38.4041 40.9002 39.2995 39.5821L37.4224 38.4978C37.1709 38.3504 36.9879 38.1094 36.9134 37.8275C36.8388 37.5456 36.8788 37.2457 37.0246 36.9932C37.1704 36.7407 37.4102 36.5561 37.6915 36.4797C37.9729 36.4033 38.2731 36.4413 38.5266 36.5854L40.4059 37.6708C41.2682 35.902 41.7821 33.9838 41.9197 32.0208H39.75C39.4572 32.0208 39.1763 31.9045 38.9692 31.6974C38.7622 31.4903 38.6458 31.2095 38.6458 30.9166C38.6458 30.6238 38.7622 30.3429 38.9692 30.1359C39.1763 29.9288 39.4572 29.8125 39.75 29.8125H41.9197C41.782 27.8496 41.2684 25.9315 40.407 24.1624L38.5266 25.2478C38.2731 25.3919 37.9729 25.43 37.6915 25.3536C37.4102 25.2772 37.1704 25.0926 37.0246 24.8401C36.8788 24.5876 36.8388 24.2876 36.9134 24.0057C36.9879 23.7238 37.1709 23.4829 37.4224 23.3354L39.2995 22.2511C38.1953 20.6241 36.7925 19.2213 35.1655 18.1171L34.0812 19.9942C33.9337 20.2457 33.6928 20.4287 33.4109 20.5033C33.129 20.5778 32.8291 20.5378 32.5766 20.392C32.3241 20.2462 32.1395 20.0065 32.0631 19.7251C31.9867 19.4437 32.0247 19.1435 32.1688 18.89L33.2542 17.0096C31.4851 16.1482 29.567 15.6347 27.6042 15.4969ZM32.5784 23.4834C32.6438 23.2475 32.629 22.9967 32.5363 22.7702C32.4437 22.5437 32.2784 22.3544 32.0664 22.2321C31.8545 22.1097 31.6079 22.0612 31.3654 22.0943C31.1229 22.1273 30.8983 22.24 30.7267 22.4145C30.7267 22.4145 24.4032 28.8783 22.5272 32.129C22.1155 32.8881 22.0164 33.7779 22.251 34.6089C22.4856 35.44 23.0353 36.1466 23.7832 36.5784C24.531 37.0102 25.4178 37.133 26.2548 36.9206C27.0919 36.7083 27.8129 36.1776 28.2645 35.4415C30.1415 32.1908 32.5784 23.4834 32.5784 23.4834ZM29.1003 27.3689C28.2965 29.8599 27.2586 32.7661 26.352 34.3373C26.2046 34.5889 25.9636 34.7719 25.6817 34.8464C25.3998 34.9209 25.0999 34.8809 24.8474 34.7351C24.5949 34.5893 24.4103 34.3496 24.3339 34.0682C24.2575 33.7868 24.2955 33.4866 24.4396 33.2332C25.3461 31.6619 27.3447 29.3112 29.1003 27.3689ZM8.86756 29.8125H5.54954C6.12481 18.7465 15.2916 9.93746 26.5 9.93746C37.7084 9.93746 46.8752 18.7465 47.4505 29.8125H44.1324C43.5616 20.575 35.8799 13.25 26.5 13.25C17.1201 13.25 9.43731 20.5761 8.86756 29.8125Z"/>
</mask>
<path fill-rule="evenodd" clip-rule="evenodd" d="M8.86756 32.0208C9.02668 34.5724 9.73814 37.059 10.9527 39.3086C12.1673 41.5582 13.8561 43.5172 15.9022 45.05C16.0943 45.1935 16.3273 45.2708 16.5658 45.2708L36.4375 45.2686C36.6771 45.2686 36.9101 45.1902 37.1011 45.0466C41.1147 42.029 43.8045 37.3418 44.1324 32.0208H48.5833C48.8762 32.0208 49.157 31.9045 49.3641 31.6974C49.5712 31.4903 49.6875 31.2095 49.6875 30.9166C49.6875 18.1193 39.2973 7.72913 26.5 7.72913C13.7027 7.72913 3.3125 18.1193 3.3125 30.9166C3.3125 31.2095 3.42883 31.4903 3.6359 31.6974C3.84297 31.9045 4.12382 32.0208 4.41667 32.0208H8.86756ZM27.6042 15.4969V17.6666C27.6042 17.9595 27.4878 18.2403 27.2808 18.4474C27.0737 18.6545 26.7928 18.7708 26.5 18.7708C26.2072 18.7708 25.9263 18.6545 25.7192 18.4474C25.5122 18.2403 25.3958 17.9595 25.3958 17.6666V15.4969C23.433 15.6347 21.5149 16.1482 19.7458 17.0096L20.8312 18.89C20.9753 19.1435 21.0133 19.4437 20.9369 19.7251C20.8605 20.0065 20.6759 20.2462 20.4234 20.392C20.1709 20.5378 19.871 20.5778 19.5891 20.5033C19.3072 20.4287 19.0663 20.2457 18.9188 19.9942L17.8345 18.1171C16.2075 19.2213 14.8047 20.6241 13.7005 22.2511L15.5776 23.3354C15.8291 23.4829 16.0121 23.7238 16.0866 24.0057C16.1612 24.2876 16.1212 24.5876 15.9754 24.8401C15.8296 25.0926 15.5898 25.2772 15.3085 25.3536C15.0271 25.43 14.7269 25.3919 14.4734 25.2478L12.593 24.1624C11.7316 25.9315 11.218 27.8496 11.0803 29.8125H13.25C13.5428 29.8125 13.8237 29.9288 14.0308 30.1359C14.2378 30.3429 14.3542 30.6238 14.3542 30.9166C14.3542 31.2095 14.2378 31.4903 14.0308 31.6974C13.8237 31.9045 13.5428 32.0208 13.25 32.0208H11.0803C11.218 33.9838 11.732 35.9019 12.5941 37.6708L14.4734 36.5854C14.7269 36.4413 15.0271 36.4033 15.3085 36.4797C15.5898 36.5561 15.8296 36.7407 15.9754 36.9932C16.1212 37.2457 16.1612 37.5456 16.0866 37.8275C16.0121 38.1094 15.8291 38.3504 15.5776 38.4978L13.7005 39.581C14.596 40.9007 15.689 42.0749 16.9412 43.0625L36.061 43.0603C37.3119 42.0732 38.4041 40.9002 39.2995 39.5821L37.4224 38.4978C37.1709 38.3504 36.9879 38.1094 36.9134 37.8275C36.8388 37.5456 36.8788 37.2457 37.0246 36.9932C37.1704 36.7407 37.4102 36.5561 37.6915 36.4797C37.9729 36.4033 38.2731 36.4413 38.5266 36.5854L40.4059 37.6708C41.2682 35.902 41.7821 33.9838 41.9197 32.0208H39.75C39.4572 32.0208 39.1763 31.9045 38.9692 31.6974C38.7622 31.4903 38.6458 31.2095 38.6458 30.9166C38.6458 30.6238 38.7622 30.3429 38.9692 30.1359C39.1763 29.9288 39.4572 29.8125 39.75 29.8125H41.9197C41.782 27.8496 41.2684 25.9315 40.407 24.1624L38.5266 25.2478C38.2731 25.3919 37.9729 25.43 37.6915 25.3536C37.4102 25.2772 37.1704 25.0926 37.0246 24.8401C36.8788 24.5876 36.8388 24.2876 36.9134 24.0057C36.9879 23.7238 37.1709 23.4829 37.4224 23.3354L39.2995 22.2511C38.1953 20.6241 36.7925 19.2213 35.1655 18.1171L34.0812 19.9942C33.9337 20.2457 33.6928 20.4287 33.4109 20.5033C33.129 20.5778 32.8291 20.5378 32.5766 20.392C32.3241 20.2462 32.1395 20.0065 32.0631 19.7251C31.9867 19.4437 32.0247 19.1435 32.1688 18.89L33.2542 17.0096C31.4851 16.1482 29.567 15.6347 27.6042 15.4969ZM32.5784 23.4834C32.6438 23.2475 32.629 22.9967 32.5363 22.7702C32.4437 22.5437 32.2784 22.3544 32.0664 22.2321C31.8545 22.1097 31.6079 22.0612 31.3654 22.0943C31.1229 22.1273 30.8983 22.24 30.7267 22.4145C30.7267 22.4145 24.4032 28.8783 22.5272 32.129C22.1155 32.8881 22.0164 33.7779 22.251 34.6089C22.4856 35.44 23.0353 36.1466 23.7832 36.5784C24.531 37.0102 25.4178 37.133 26.2548 36.9206C27.0919 36.7083 27.8129 36.1776 28.2645 35.4415C30.1415 32.1908 32.5784 23.4834 32.5784 23.4834ZM29.1003 27.3689C28.2965 29.8599 27.2586 32.7661 26.352 34.3373C26.2046 34.5889 25.9636 34.7719 25.6817 34.8464C25.3998 34.9209 25.0999 34.8809 24.8474 34.7351C24.5949 34.5893 24.4103 34.3496 24.3339 34.0682C24.2575 33.7868 24.2955 33.4866 24.4396 33.2332C25.3461 31.6619 27.3447 29.3112 29.1003 27.3689ZM8.86756 29.8125H5.54954C6.12481 18.7465 15.2916 9.93746 26.5 9.93746C37.7084 9.93746 46.8752 18.7465 47.4505 29.8125H44.1324C43.5616 20.575 35.8799 13.25 26.5 13.25C17.1201 13.25 9.43731 20.5761 8.86756 29.8125Z" stroke="black" stroke-width="2" mask="url(#path-1-inside-1_1289_1490)"/>
</svg>
