<svg width="54" height="54" viewBox="0 0 54 54" fill="none" xmlns="http://www.w3.org/2000/svg">
<path d="M24.4587 1.68408C24.2903 1.68374 24.1257 1.73377 23.9861 1.82773C23.8464 1.92169 23.738 2.05528 23.6748 2.21134C23.6117 2.36739 23.5967 2.53877 23.6317 2.70343C23.6667 2.86809 23.7502 3.01851 23.8714 3.13533L25.9032 5.16371C14.3101 5.74083 5.06256 15.3106 5.06256 27.0455C5.05224 31.4181 6.35755 35.6927 8.80881 39.3136C10.386 41.6488 12.3968 43.6595 14.7319 45.2368C15.8997 46.0248 17.1484 46.7049 18.4613 47.2601C18.5641 47.3084 18.6755 47.3355 18.789 47.3397C18.9025 47.344 19.0156 47.3253 19.1217 47.2847C19.2278 47.2442 19.3246 47.1827 19.4063 47.1038C19.488 47.025 19.553 46.9304 19.5973 46.8259C19.6416 46.7214 19.6644 46.6089 19.6642 46.4954C19.664 46.3818 19.641 46.2695 19.5963 46.1651C19.5517 46.0606 19.4865 45.9663 19.4045 45.8877C19.3226 45.8091 19.2256 45.7478 19.1194 45.7076C16.7139 44.6901 14.5282 43.2162 12.6833 41.3673C10.7992 39.4893 9.30511 37.2573 8.28685 34.7997C7.26859 32.3421 6.74631 29.7074 6.75006 27.0472C6.75006 16.2877 15.1201 7.52621 25.7041 6.85627L23.8714 8.69058C23.7931 8.76903 23.731 8.86214 23.6886 8.9646C23.6463 9.06705 23.6245 9.17685 23.6246 9.28771C23.6247 9.39858 23.6466 9.50834 23.6891 9.61073C23.7316 9.71313 23.7938 9.80615 23.8723 9.88449C23.9507 9.96283 24.0438 10.0249 24.1463 10.0673C24.2488 10.1097 24.3585 10.1314 24.4694 10.1313C24.5803 10.1313 24.69 10.1093 24.7924 10.0668C24.8948 10.0243 24.9879 9.96209 25.0662 9.88365L28.4412 6.50865C28.52 6.43024 28.5826 6.33702 28.6253 6.23436C28.6679 6.1317 28.6899 6.02161 28.6899 5.91043C28.6899 5.79924 28.6679 5.68916 28.6253 5.58649C28.5826 5.48383 28.52 5.39062 28.4412 5.31221L25.0662 1.94058C24.9873 1.85923 24.8929 1.7946 24.7885 1.75053C24.6842 1.70646 24.572 1.68386 24.4587 1.68408ZM35.1271 6.76346C34.9371 6.77832 34.7577 6.85704 34.6182 6.98681C34.4787 7.11659 34.3872 7.28977 34.3586 7.47816C34.3301 7.66656 34.3661 7.85908 34.4609 8.02438C34.5557 8.18968 34.7037 8.31802 34.8807 8.38852C37.2863 9.40592 39.472 10.8798 41.3168 12.7288C43.1993 14.6072 44.6925 16.8389 45.7107 19.2957C46.7289 21.7525 47.252 24.3861 47.2501 27.0455C47.2501 37.832 38.8345 46.607 28.2066 47.2331L30.1287 45.3127C30.2505 45.1941 30.3336 45.0415 30.3672 44.8748C30.4008 44.7081 30.3832 44.5352 30.3168 44.3787C30.2504 44.2222 30.1383 44.0893 29.9951 43.9977C29.8519 43.906 29.6844 43.8597 29.5144 43.8648C29.2954 43.8706 29.0872 43.9614 28.9339 44.118L25.5589 47.493C25.4804 47.5713 25.418 47.6644 25.3755 47.767C25.333 47.8695 25.3111 47.9794 25.3111 48.0903C25.3111 48.2013 25.333 48.3112 25.3755 48.4137C25.418 48.5162 25.4804 48.6093 25.5589 48.6877L28.9339 52.0627C29.0123 52.1412 29.1053 52.2034 29.2077 52.2459C29.3101 52.2884 29.4199 52.3103 29.5307 52.3104C29.6416 52.3105 29.7514 52.2887 29.8538 52.2464C29.9563 52.204 30.0494 52.1419 30.1278 52.0636C30.2063 51.9852 30.2685 51.8922 30.311 51.7898C30.3535 51.6874 30.3755 51.5776 30.3755 51.4668C30.3756 51.3559 30.3539 51.2461 30.3115 51.1437C30.2691 51.0412 30.207 50.9481 30.1287 50.8696L28.1813 48.924C39.7373 48.3046 48.9376 38.7517 48.9376 27.0455C48.9472 22.6741 47.6419 18.4007 45.1913 14.7808C42.8093 11.2544 39.4567 8.49376 35.5388 6.83265C35.4359 6.78818 35.3252 6.76466 35.2131 6.76346C35.185 6.76205 35.1552 6.76205 35.1271 6.76346ZM27.0001 13.5472C19.5548 13.5472 13.5001 19.6003 13.5001 27.0472C13.5001 34.4925 19.5548 40.5472 27.0001 40.5472C34.4453 40.5472 40.5001 34.4925 40.5001 27.0472C40.5001 19.6003 34.4453 13.5472 27.0001 13.5472ZM27.0001 15.2347C33.5341 15.2347 38.8126 20.5115 38.8126 27.0472C38.8126 33.5795 33.5341 38.8597 27.0001 38.8597C20.4661 38.8597 15.1876 33.5795 15.1876 27.0472C15.1876 20.5115 20.4661 15.2347 27.0001 15.2347ZM26.4027 18.5625V20.5166C25.8728 20.5824 25.3919 20.709 24.9633 20.8996C24.5346 21.0886 24.1701 21.3316 23.8664 21.627C23.5674 21.926 23.3321 22.2825 23.1745 22.6749C23.0134 23.1007 22.9333 23.5528 22.9383 24.008C22.9383 24.5345 23.0311 24.9986 23.2083 25.4019C23.3973 25.8035 23.6605 26.1579 24.0048 26.465C24.3558 26.7738 24.7776 27.0421 25.2704 27.275C25.7682 27.4978 26.3301 27.6969 26.9545 27.8707C27.4219 28.0226 27.8202 28.1863 28.1476 28.3516C28.4817 28.517 28.7517 28.6959 28.9542 28.8916C29.1651 29.0874 29.3153 29.2966 29.4098 29.5211C29.5026 29.7455 29.5516 29.9936 29.5516 30.2602C29.5516 30.5808 29.4942 30.8677 29.3761 31.1293C29.2579 31.3841 29.0858 31.6018 28.8597 31.7857C28.6403 31.9629 28.3703 32.103 28.0413 32.2042C27.3912 32.3866 26.7048 32.3959 26.05 32.2312C25.7547 32.1542 25.4796 32.0143 25.2434 31.8211C24.9887 31.6081 24.7885 31.3373 24.6595 31.0314C24.511 30.699 24.4401 30.2821 24.4401 29.7776H22.3797C22.3797 30.4475 22.4843 31.023 22.6952 31.5022C22.9062 31.9747 23.1846 32.3713 23.5356 32.6851C23.8951 32.999 24.3051 33.2386 24.7658 33.404C25.2265 33.5694 25.7007 33.6808 26.1917 33.7331V35.4375H27.8202V33.7331C28.4058 33.674 28.9323 33.5559 29.3997 33.3787C29.8671 33.1998 30.2654 32.9619 30.5928 32.6649C30.9201 32.3696 31.1749 32.0203 31.3538 31.6186C31.5327 31.2086 31.6204 30.753 31.6204 30.2433C31.6204 29.7219 31.5361 29.2629 31.3639 28.8646C31.1892 28.4648 30.9295 28.1078 30.6029 27.8184C30.2321 27.4925 29.8139 27.2251 29.3626 27.0253C28.8146 26.7732 28.2475 26.565 27.6666 26.4026C27.2346 26.2693 26.8123 26.1063 26.4027 25.9149C26.1074 25.7706 25.8318 25.5891 25.5826 25.3749C25.386 25.2041 25.2302 24.9913 25.1269 24.7522C24.9575 24.2272 24.9575 23.6623 25.1269 23.1373C25.2214 22.8841 25.3564 22.6648 25.537 22.4876C25.7347 22.2982 25.9706 22.1532 26.2289 22.0623C26.5023 21.9611 26.8229 21.9105 27.1975 21.9105C27.5569 21.9105 27.8759 21.978 28.1577 22.1146C28.4378 22.2513 28.6724 22.4403 28.8597 22.6816C29.0453 22.9246 29.1871 23.2149 29.2816 23.5456C29.3828 23.8781 29.4334 24.2392 29.4334 24.6375H31.4821C31.4821 23.4343 31.18 22.4893 30.5793 21.7957C29.9869 21.0971 29.1466 20.6752 28.0548 20.5267V18.5625H26.4027Z" fill="black"/>
</svg>
