<svg width="46" height="45" viewBox="0 0 46 45" fill="none" xmlns="http://www.w3.org/2000/svg">
<rect x="0.199707" width="45" height="45" rx="22.5" fill="#999999"/>
<g clip-path="url(#clip0_1289_1345)">
<path d="M12.1997 22C12.1997 23.0208 12.3455 23.9961 12.6372 24.9258C12.9289 25.8555 13.3345 26.7168 13.854 27.5098C14.3735 28.3027 14.9979 29.0091 15.7271 29.6289C16.438 30.2669 17.231 30.7956 18.106 31.2148L13.1021 17.8438C12.8104 18.4818 12.5871 19.1471 12.4321 19.8398C12.2772 20.5326 12.1997 21.2526 12.1997 22ZM29.7817 21.4805C29.7817 20.8424 29.6906 20.3001 29.5083 19.8535C29.326 19.4069 29.1346 19.0104 28.9341 18.6641C28.6606 18.2448 28.4191 17.8438 28.2095 17.4609C27.9998 17.0781 27.895 16.6771 27.895 16.2578C27.895 15.7839 28.0591 15.3646 28.3872 15C28.7153 14.6354 29.1346 14.4531 29.645 14.4531C29.6815 14.4531 29.7088 14.4531 29.7271 14.4531C29.7453 14.4531 29.7635 14.4531 29.7817 14.4531C28.8521 13.6146 27.7811 12.9583 26.5688 12.4844C25.3566 12.0104 24.0669 11.7734 22.6997 11.7734C21.7882 11.7734 20.9041 11.8828 20.0474 12.1016C19.1906 12.3203 18.3885 12.6302 17.6411 13.0312C16.8937 13.4323 16.201 13.9154 15.563 14.4805C14.9432 15.0456 14.3963 15.6836 13.9224 16.3945C14.05 16.3945 14.1685 16.3945 14.2778 16.3945C14.3872 16.3945 14.4966 16.3945 14.606 16.3945C15.1528 16.3945 15.7544 16.3717 16.4106 16.3262C17.0669 16.2806 17.395 16.2578 17.395 16.2578C17.6867 16.2396 17.8416 16.3672 17.8599 16.6406C17.8781 16.9141 17.7505 17.069 17.4771 17.1055C17.4771 17.1055 17.354 17.1191 17.1079 17.1465C16.8618 17.1738 16.5838 17.1966 16.2739 17.2148L20.1021 28.2891L22.3989 21.5625L20.7583 17.2148C20.4666 17.1966 20.2069 17.1738 19.979 17.1465C19.7511 17.1191 19.6372 17.1055 19.6372 17.1055C19.3638 17.0872 19.2362 16.9368 19.2544 16.6543C19.2726 16.3717 19.4276 16.2396 19.7192 16.2578C19.7192 16.2578 20.0519 16.2806 20.7173 16.3262C21.3826 16.3717 21.9705 16.3945 22.481 16.3945C23.0278 16.3945 23.6294 16.3717 24.2856 16.3262C24.9419 16.2806 25.27 16.2578 25.27 16.2578C25.5617 16.2396 25.7166 16.3672 25.7349 16.6406C25.7531 16.9141 25.6255 17.069 25.3521 17.1055C25.3521 17.1055 25.229 17.1191 24.9829 17.1465C24.7368 17.1738 24.4588 17.1966 24.1489 17.2148L27.9497 28.207L28.9888 24.7891C29.2075 24.0781 29.3944 23.4583 29.5493 22.9297C29.7043 22.401 29.7817 21.918 29.7817 21.4805ZM22.8911 22.9023L19.7466 31.8164C20.2023 31.944 20.6808 32.0443 21.1821 32.1172C21.6834 32.1901 22.1893 32.2266 22.6997 32.2266C23.3195 32.2266 23.9211 32.1764 24.5044 32.0762C25.0877 31.9759 25.6528 31.8346 26.1997 31.6523C26.1815 31.6341 26.1632 31.6113 26.145 31.584C26.1268 31.5566 26.1177 31.5339 26.1177 31.5156L22.8911 22.9023ZM31.9146 17.1055C31.9328 17.2695 31.951 17.4382 31.9692 17.6113C31.9875 17.7845 31.9966 17.9622 31.9966 18.1445C31.9966 18.6549 31.9373 19.2109 31.8188 19.8125C31.7004 20.4141 31.4862 21.0794 31.1763 21.8086L27.9771 30.832C28.7609 30.3945 29.4718 29.8659 30.1099 29.2461C30.7479 28.6263 31.2948 27.9336 31.7505 27.168C32.2062 26.4023 32.5617 25.5911 32.8169 24.7344C33.0721 23.8594 33.1997 22.9479 33.1997 22C33.1997 21.1068 33.0858 20.25 32.8579 19.4297C32.63 18.6094 32.3156 17.8346 31.9146 17.1055ZM22.6997 8C20.7674 8 18.9536 8.36458 17.2583 9.09375C15.5448 9.82292 14.0545 10.821 12.7876 12.0879C11.5207 13.3548 10.5226 14.8451 9.79346 16.5586C9.06429 18.2539 8.69971 20.0677 8.69971 22C8.69971 23.9323 9.06429 25.7461 9.79346 27.4414C10.5226 29.1549 11.5207 30.6452 12.7876 31.9121C14.0545 33.179 15.5448 34.1771 17.2583 34.9062C18.9536 35.6354 20.7674 36 22.6997 36C24.632 36 26.4458 35.6354 28.1411 34.9062C29.8547 34.1771 31.3449 33.179 32.6118 31.9121C33.8787 30.6452 34.8768 29.1549 35.606 27.4414C36.3351 25.7461 36.6997 23.9323 36.6997 22C36.6997 20.0677 36.3351 18.2539 35.606 16.5586C34.8768 14.8451 33.8787 13.3548 32.6118 12.0879C31.3449 10.821 29.8547 9.82292 28.1411 9.09375C26.4458 8.36458 24.632 8 22.6997 8ZM22.6997 34.25C21.0044 34.25 19.4185 33.931 17.9419 33.293C16.4471 32.6549 15.1437 31.7799 14.0317 30.668C12.9198 29.556 12.0448 28.2526 11.4067 26.7578C10.7687 25.2812 10.4497 23.6953 10.4497 22C10.4497 20.3047 10.7687 18.7188 11.4067 17.2422C12.0448 15.7474 12.9198 14.444 14.0317 13.332C15.1437 12.2201 16.4471 11.3451 17.9419 10.707C19.4185 10.069 21.0044 9.75 22.6997 9.75C24.395 9.75 25.981 10.069 27.4575 10.707C28.9523 11.3451 30.2557 12.2201 31.3677 13.332C32.4797 14.444 33.3547 15.7474 33.9927 17.2422C34.6307 18.7188 34.9497 20.3047 34.9497 22C34.9497 23.6953 34.6307 25.2812 33.9927 26.7578C33.3547 28.2526 32.4797 29.556 31.3677 30.668C30.2557 31.7799 28.9523 32.6549 27.4575 33.293C25.981 33.931 24.395 34.25 22.6997 34.25Z" fill="#212733"/>
</g>
<defs>
<clipPath id="clip0_1289_1345">
<rect width="28" height="28" fill="white" transform="matrix(1 0 0 -1 8.69971 36)"/>
</clipPath>
</defs>
</svg>
