<svg width="46" height="45" viewBox="0 0 46 45" fill="none" xmlns="http://www.w3.org/2000/svg">
<rect x="0.560059" width="45" height="45" rx="22.5" fill="#999999"/>
<g clip-path="url(#clip0_1289_1342)">
<path d="M36.7866 16.3945C36.7866 16.3945 36.7046 16.0391 36.5405 15.3281C36.3765 14.6172 36.0848 14.0521 35.6655 13.6328C35.1369 13.0677 34.6037 12.735 34.0659 12.6348C33.5282 12.5345 33.1226 12.4661 32.8491 12.4297C31.883 12.3568 30.8257 12.3021 29.6772 12.2656C28.5288 12.2292 27.467 12.2018 26.4917 12.1836C25.5164 12.1654 24.7007 12.1562 24.0444 12.1562C23.3882 12.1562 23.0601 12.1562 23.0601 12.1562C23.0601 12.1562 22.7319 12.1562 22.0757 12.1562C21.4194 12.1562 20.6037 12.1654 19.6284 12.1836C18.6532 12.2018 17.5913 12.2292 16.4429 12.2656C15.2944 12.3021 14.2371 12.3568 13.271 12.4297C12.9976 12.4661 12.592 12.5345 12.0542 12.6348C11.5164 12.735 10.9832 13.0677 10.4546 13.6328C10.0353 14.0521 9.74365 14.6172 9.57959 15.3281C9.41553 16.0391 9.3335 16.3945 9.3335 16.3945C9.3335 16.3945 9.28792 16.8685 9.19678 17.8164C9.10563 18.7643 9.06006 19.8034 9.06006 20.9336V23.0664C9.06006 24.1966 9.10563 25.2311 9.19678 26.1699C9.28792 27.1087 9.3335 27.5781 9.3335 27.5781C9.3335 27.5781 9.41553 27.9382 9.57959 28.6582C9.74365 29.3783 10.0353 29.9479 10.4546 30.3672C10.9832 30.9323 11.5529 31.2604 12.1636 31.3516C12.7743 31.4427 13.2345 31.5156 13.5444 31.5703C14.1095 31.625 14.9207 31.6706 15.978 31.707C17.0353 31.7435 18.0881 31.7708 19.1362 31.7891C20.1844 31.8073 21.1004 31.8255 21.8843 31.8438C22.6681 31.8438 23.0601 31.8438 23.0601 31.8438C23.0601 31.8438 23.3882 31.8438 24.0444 31.8438C24.7007 31.8438 25.5164 31.8301 26.4917 31.8027C27.467 31.7754 28.5288 31.7435 29.6772 31.707C30.8257 31.6706 31.8921 31.6159 32.8765 31.543C33.1499 31.5247 33.5509 31.4655 34.0796 31.3652C34.6082 31.265 35.1369 30.9323 35.6655 30.3672C36.0848 29.9479 36.3765 29.3783 36.5405 28.6582C36.7046 27.9382 36.7866 27.5781 36.7866 27.5781C36.7866 27.5781 36.8322 27.1087 36.9233 26.1699C37.0145 25.2311 37.0601 24.1966 37.0601 23.0664V20.9336C37.0601 19.8034 37.0145 18.7643 36.9233 17.8164C36.8322 16.8685 36.7866 16.3945 36.7866 16.3945ZM20.1616 25.6367V17.7617L27.7358 21.6992L20.1616 25.6367Z" fill="#212733"/>
</g>
<defs>
<clipPath id="clip0_1289_1342">
<rect width="28" height="28" fill="white" transform="matrix(1 0 0 -1 9.06006 36)"/>
</clipPath>
</defs>
</svg>
